<svg id="Capa_1" enable-background="new 0 0 512 512" height="512" viewBox="0 0 512 512" width="512" xmlns="http://www.w3.org/2000/svg" xmlns:xlink="http://www.w3.org/1999/xlink"><linearGradient id="SVGID_1_" gradientUnits="userSpaceOnUse" x1="256" x2="256" y1="512" y2="0"><stop offset="0" stop-color="#ffe59a"/><stop offset="1" stop-color="#ffffd5"/></linearGradient><linearGradient id="SVGID_2_" gradientUnits="userSpaceOnUse" x1="256" x2="256" y1="407" y2="105"><stop offset="0" stop-color="#ffde00"/><stop offset="1" stop-color="#fd5900"/></linearGradient><g><circle cx="256" cy="256" fill="url(#SVGID_1_)" r="256"/></g><g><g><path d="m308.301 149.945c3.944 2.861 9.519 2.031 12.434-1.972l20.915-28.796c2.885-3.98 1.999-9.541-1.972-12.434-3.988-2.902-9.549-2.007-12.434 1.972l-20.915 28.796c-2.886 3.98-1.999 9.541 1.972 12.434zm-117.036-1.972c2.9 3.982 8.443 4.845 12.434 1.972 3.971-2.894 4.857-8.455 1.972-12.434l-20.915-28.796c-2.893-3.98-8.437-4.84-12.434-1.972-3.971 2.893-4.857 8.455-1.972 12.434zm115.593 79.802 47.93-39.936c2.789-2.329 3.884-6.126 2.763-9.584-1.13-3.467-4.24-5.891-7.872-6.135l-62.25-4.136-23.166-57.914c-2.711-6.76-13.816-6.76-16.527 0l-23.166 57.914-62.25 4.136c-3.632.243-6.743 2.668-7.872 6.135-1.121 3.458-.026 7.256 2.763 9.584l47.93 39.936-15.302 60.477c-.886 3.528.452 7.238 3.397 9.376 2.937 2.138 6.899 2.277 9.975.339l43.89-27.642v47.697h-44.489c-4.918 0-8.898 3.98-8.898 8.898v71.182c0 4.918 3.98 8.898 8.898 8.898h106.774c4.918 0 8.898-3.98 8.898-8.898v-71.182c0-4.918-3.98-8.898-8.898-8.898h-44.489v-47.697l43.89 27.642c3.003 1.888 6.956 1.854 9.975-.339 2.946-2.138 4.284-5.848 3.397-9.376zm-33.062 125.838c4.918 0 8.898 3.98 8.898 8.898s-3.98 8.898-8.898 8.898h-35.591c-4.918 0-8.898-3.98-8.898-8.898s3.98-8.898 8.898-8.898zm-102.96-120.581-33.845 11.001c-4.666 1.521-7.229 6.543-5.709 11.218 1.504 4.607 6.462 7.234 11.218 5.709l33.845-11.001c4.666-1.521 7.229-6.543 5.709-11.218-1.529-4.666-6.517-7.212-11.218-5.709zm204.172 11.001-33.844-11.001c-4.701-1.495-9.689 1.043-11.218 5.709-1.521 4.675 1.043 9.697 5.709 11.218l33.845 11.001c4.761 1.527 9.716-1.107 11.218-5.709 1.52-4.675-1.044-9.698-5.71-11.218z" fill="url(#SVGID_2_)"/></g></g></svg>