<svg id="Capa_1" enable-background="new 0 0 512 512" height="512" viewBox="0 0 512 512" width="512" xmlns="http://www.w3.org/2000/svg" xmlns:xlink="http://www.w3.org/1999/xlink"><linearGradient id="SVGID_1_" gradientUnits="userSpaceOnUse" x1="256" x2="256" y1="512" y2="0"><stop offset="0" stop-color="#ffe59a"/><stop offset="1" stop-color="#ffffd5"/></linearGradient><linearGradient id="SVGID_2_" gradientUnits="userSpaceOnUse" x1="256" x2="256" y1="407" y2="105"><stop offset="0" stop-color="#ffde00"/><stop offset="1" stop-color="#fd5900"/></linearGradient><g><g><circle cx="256" cy="256" fill="url(#SVGID_1_)" r="256"/></g><g><g><path d="m350.903 125.367-17.727-17.765c-3.462-3.47-9.072-3.47-12.534 0l-11.46 11.485-11.46-11.485c-3.462-3.47-9.072-3.47-12.534 0l-11.46 11.485-11.46-11.485c-3.462-3.47-9.071-3.47-12.534 0l-11.46 11.485-11.46-11.485c-3.462-3.47-9.071-3.47-12.534 0l-11.46 11.485-11.46-11.485c-3.462-3.47-9.072-3.47-12.534 0l-17.727 17.765c-1.662 1.666-2.597 3.921-2.597 6.28v266.471c0 4.91 3.964 8.882 8.864 8.882h177.272c4.899 0 8.864-3.973 8.864-8.882v-266.471c-.002-2.359-.937-4.615-2.599-6.28zm-130.358 228.339h-17.727c-4.899 0-8.864-3.973-8.864-8.883 0-4.909 3.964-8.882 8.864-8.882h17.727c4.899 0 8.864 3.973 8.864 8.882 0 4.91-3.964 8.883-8.864 8.883zm0-35.53h-17.727c-4.899 0-8.864-3.973-8.864-8.882s3.964-8.882 8.864-8.882h17.727c4.899 0 8.864 3.973 8.864 8.882 0 4.91-3.964 8.882-8.864 8.882zm14.187-63.946c-2.934-3.929-2.146-9.498 1.766-12.439 3.947-2.915 9.478-2.16 12.413 1.77 1.688 2.264 4.276 3.556 7.089 3.556 4.891 0 8.864-3.981 8.864-8.882 0-5.829-1.125-6.766-10.933-9.125-9.175-2.212-24.522-5.907-24.522-26.404 0-11.565 7.432-21.332 17.727-25.011v-10.518c0-4.91 3.965-8.882 8.864-8.882s8.864 3.973 8.864 8.882v10.606c4.858 1.744 9.252 4.718 12.404 8.928 2.934 3.929 2.146 9.498-1.766 12.439-3.93 2.949-9.461 2.16-12.413-1.77-4.631-6.219-15.97-2.403-15.953 5.326 0 5.829 1.125 6.766 10.933 9.125 9.175 2.212 24.522 5.907 24.522 26.404 0 11.565-7.432 21.332-17.727 25.011v10.519c0 4.91-3.965 8.882-8.864 8.882s-8.864-3.973-8.864-8.882v-10.606c-4.858-1.744-9.252-4.718-12.404-8.929zm74.45 99.476h-53.182c-4.899 0-8.864-3.973-8.864-8.883 0-4.909 3.965-8.882 8.864-8.882h53.182c4.899 0 8.864 3.973 8.864 8.882-.001 4.91-3.965 8.883-8.864 8.883zm0-35.53h-53.182c-4.899 0-8.864-3.973-8.864-8.882s3.965-8.882 8.864-8.882h53.182c4.899 0 8.864 3.973 8.864 8.882-.001 4.91-3.965 8.882-8.864 8.882z" fill="url(#SVGID_2_)"/></g></g></g></svg>