<svg id="Capa_1" enable-background="new 0 0 512 512" height="512" viewBox="0 0 512 512" width="512" xmlns="http://www.w3.org/2000/svg" xmlns:xlink="http://www.w3.org/1999/xlink"><linearGradient id="SVGID_1_" gradientUnits="userSpaceOnUse" x1="256" x2="256" y1="512" y2="0"><stop offset="0" stop-color="#ffedad"/><stop offset="1" stop-color="#ffffe5"/></linearGradient><linearGradient id="lg1"><stop offset="0" stop-color="#feba00"/><stop offset="1" stop-color="#fd5900"/></linearGradient><linearGradient id="SVGID_2_" gradientUnits="userSpaceOnUse" x1="256" x2="256" xlink:href="#lg1" y1="405.601" y2="99.172"/><linearGradient id="SVGID_3_" gradientUnits="userSpaceOnUse" x1="256.042" x2="256.042" xlink:href="#lg1" y1="405.601" y2="99.172"/><g><circle cx="256" cy="256" fill="url(#SVGID_1_)" r="256"/><g><path d="m121.088 364.529c0 4.971 4.023 8.994 8.994 8.994h251.836c4.971 0 8.994-4.023 8.994-8.994s-4.023-8.994-8.994-8.994c-14.879 0-26.982-12.103-26.982-26.982v-87.276c0-54.338-42.235-102.678-98.936-102.817-55.32-.135-98.936 45.164-98.936 98.952v91.141c0 14.879-12.103 26.982-26.982 26.982-4.971 0-8.994 4.023-8.994 8.994z" fill="url(#SVGID_2_)"/><path d="m229.736 123.506c8.383-1.924 17.07-3.036 26.027-3.036 9.16.022 18.031 1.236 26.585 3.304-2.629-12.14-13.431-21.274-26.348-21.274-12.819 0-23.531 9.004-26.264 21.006z" fill="url(#SVGID_3_)"/><path d="m256 409.5c14.633 0 27.529-7.133 35.747-17.988h-71.494c8.218 10.855 21.114 17.988 35.747 17.988z" fill="url(#SVGID_2_)"/></g></g></svg>