<svg id="Capa_1" enable-background="new 0 0 512 512" height="512" viewBox="0 0 512 512" width="512" xmlns="http://www.w3.org/2000/svg" xmlns:xlink="http://www.w3.org/1999/xlink"><linearGradient id="SVGID_1_" gradientUnits="userSpaceOnUse" x1="256" x2="256" y1="512" y2="0"><stop offset="0" stop-color="#ffe59a"/><stop offset="1" stop-color="#ffffd5"/></linearGradient><linearGradient id="SVGID_2_" gradientUnits="userSpaceOnUse" x1="256.039" x2="256.039" y1="371.441" y2="140.559"><stop offset="0" stop-color="#ffde00"/><stop offset="1" stop-color="#fd5900"/></linearGradient><g><circle cx="256" cy="256" fill="url(#SVGID_1_)" r="256"/></g><g><g><path d="m380.36 176.079h-65.551l-15.306-30.612c-1.509-3.009-4.579-4.909-7.943-4.909h-71.041c-3.365 0-6.435 1.899-7.944 4.909l-15.306 30.612h-38.911v-8.88c0-4.908-3.972-8.88-8.88-8.88s-8.88 3.972-8.88 8.88v8.88h-8.88c-14.69 0-26.64 11.95-26.64 26.64v142.082c0 14.69 11.95 26.641 26.64 26.641h248.642c14.69 0 26.64-11.95 26.64-26.641v-142.082c0-14.69-11.95-26.64-26.64-26.64zm-142.082 0h35.52c4.908 0 8.88 3.972 8.88 8.88s-3.972 8.88-8.88 8.88h-35.52c-4.908 0-8.88-3.972-8.88-8.88s3.972-8.88 8.88-8.88zm17.76 159.842c-34.272 0-62.161-27.889-62.161-62.161s27.889-62.161 62.161-62.161 62.161 27.889 62.161 62.161-27.889 62.161-62.161 62.161zm106.562-106.561h-17.76c-4.908 0-8.88-3.972-8.88-8.88s3.972-8.88 8.88-8.88h17.76c4.908 0 8.88 3.972 8.88 8.88s-3.972 8.88-8.88 8.88zm-106.562 0c-24.481 0-44.4 19.919-44.4 44.4s19.919 44.4 44.4 44.4 44.4-19.919 44.4-44.4-19.919-44.4-44.4-44.4zm0 71.04c-14.69 0-26.64-11.95-26.64-26.64s11.95-26.64 26.64-26.64 26.64 11.95 26.64 26.64-11.949 26.64-26.64 26.64zm0-35.52c-4.9 0-8.88 3.98-8.88 8.88 0 4.899 3.98 8.88 8.88 8.88s8.88-3.98 8.88-8.88c.001-4.9-3.98-8.88-8.88-8.88z" fill="url(#SVGID_2_)"/></g></g></svg>