<svg id="Capa_1" enable-background="new 0 0 512 512" height="512" viewBox="0 0 512 512" width="512" xmlns="http://www.w3.org/2000/svg" xmlns:xlink="http://www.w3.org/1999/xlink"><linearGradient id="SVGID_1_" gradientUnits="userSpaceOnUse" x1="256" x2="256" y1="512" y2="0"><stop offset="0" stop-color="#ffe59a"/><stop offset="1" stop-color="#ffffd5"/></linearGradient><linearGradient id="SVGID_2_" gradientUnits="userSpaceOnUse" x1="256" x2="256" y1="407" y2="105"><stop offset="0" stop-color="#ffde00"/><stop offset="1" stop-color="#fd5900"/></linearGradient><g><circle cx="256" cy="256" fill="url(#SVGID_1_)" r="256"/></g><g><g><path d="m329.881 196.248c14.249-14.249 26.767-26.809 23.604-55.979-24.232-20.445-54.95-33.298-88.577-35.269v142.091h36.213c2.731-24.63 16.432-38.523 28.76-50.843zm-147.762 0c12.328 12.321 26.03 26.214 28.759 50.844h36.213v-142.092c-33.604 1.969-64.304 14.804-88.529 35.226-3.133 29.11 9.425 41.889 23.557 56.022zm0 119.504c-14.128 14.135-26.684 26.913-23.548 56.03 24.223 20.417 54.92 33.249 88.52 35.218v-142.091h-36.213c-2.73 24.63-16.431 38.523-28.759 50.843zm119.003-50.843h-36.213v142.091c33.604-1.969 64.304-14.804 88.529-35.226 3.133-29.111-9.425-41.89-23.557-56.022-12.328-12.32-26.029-26.213-28.759-50.843zm-131.601-56.064c-12.569-12.57-26.171-26.222-28.829-50.797-20.68 24.306-33.708 55.192-35.692 89.042h87.971c-2.519-17.224-12.311-27.105-23.45-38.245zm149.508 38.246h87.971c-1.989-33.93-15.081-64.879-35.845-89.211-2.685 24.59-16.182 38.472-28.676 50.965-11.139 11.14-20.931 21.021-23.45 38.246zm23.45 56.064c12.569 12.57 26.171 26.222 28.829 50.797 20.68-24.306 33.708-55.192 35.692-89.042h-87.971c2.519 17.224 12.311 27.105 23.45 38.245zm-149.508-38.246h-87.971c1.984 33.851 15.014 64.739 35.695 89.045 2.657-24.577 16.255-38.229 28.826-50.8 11.139-11.139 20.931-21.02 23.45-38.245z" fill="url(#SVGID_2_)"/></g></g></svg>