<svg id="Capa_1" enable-background="new 0 0 512 512" height="512" viewBox="0 0 512 512" width="512" xmlns="http://www.w3.org/2000/svg" xmlns:xlink="http://www.w3.org/1999/xlink"><linearGradient id="SVGID_1_" gradientUnits="userSpaceOnUse" x1="256" x2="256" y1="512" y2="0"><stop offset="0" stop-color="#ffedad"/><stop offset="1" stop-color="#ffffe5"/></linearGradient><linearGradient id="SVGID_2_" gradientUnits="userSpaceOnUse" x1="256" x2="256" y1="408" y2="106"><stop offset="0" stop-color="#feba00"/><stop offset="1" stop-color="#fd5900"/></linearGradient><g><g><circle cx="256" cy="256" fill="url(#SVGID_1_)" r="256"/></g><g><g><path d="m380.353 141.529h-42.994c-.302-15.336-1.301-25.926-1.462-27.532-.46-4.537-4.276-7.998-8.839-7.998h-142.117c-4.563 0-8.379 3.461-8.839 7.998-.16 1.607-1.157 12.198-1.463 27.532h-42.992c-4.91 0-8.882 3.973-8.882 8.882 0 46.702 27.513 87.824 70.214 106.031 9.104 19.493 22.406 35.167 42.099 41.612 6.349 2.255 13.185 3.357 20.922 3.357 7.685 0 14.503-1.084 20.809-3.322 19.689-6.483 33.004-22.142 42.123-41.605 42.753-18.188 70.303-59.339 70.303-106.073 0-4.909-3.972-8.882-8.882-8.882zm-239.433 17.765h33.769c.441 21.665 2.6 47.929 9.149 72.078-24.336-16.253-40.276-42.402-42.918-72.078zm154.981 39.858-13.514 13.15 3.166 18.597c.573 3.331-.798 6.696-3.539 8.683-2.741 1.986-6.364 2.241-9.351.668l-16.689-8.796-16.698 8.761c-2.984 1.579-6.618 1.31-9.359-.685-2.732-1.995-4.094-5.361-3.522-8.692l3.201-18.589-13.488-13.167c-2.411-2.368-3.279-5.898-2.238-9.108 1.05-3.218 3.834-5.56 7.182-6.046l18.658-2.689 8.362-16.897c1.501-3.027 4.589-4.944 7.963-4.944 3.383 0 6.48 1.926 7.972 4.962l8.327 16.915 18.658 2.724c3.348.486 6.124 2.828 7.165 6.046 1.04 3.217.173 6.748-2.256 9.107zm32.199 32.261c6.58-24.165 8.757-50.445 9.204-72.119h33.776c-2.644 29.702-18.608 55.869-42.98 72.119zm-18.806 105.528h-14.065c-2.758-3.153-7.872-10.33-10.649-22.976-.775.283-1.418.734-2.211.995-7.859 2.793-16.62 4.216-26.37 4.216-9.784 0-18.563-1.431-26.873-4.38-.873-.285-1.583-.782-2.435-1.094-2.957 11.971-7.741 19.58-10.453 23.239h-13.533c-4.91 0-8.882 3.973-8.882 8.882v53.294c0 4.91 3.973 8.882 8.882 8.882h106.588c4.91 0 8.882-3.973 8.882-8.882v-53.294c.001-4.909-3.971-8.882-8.881-8.882z" fill="url(#SVGID_2_)"/></g></g></g></svg>